<svg xmlns="http://www.w3.org/2000/svg" style="width:35px" viewBox="0 0 343.62 407.04"><path d="M171.28 11.85H172.18a31.94 31.94 0 0111.69 2.76c23.28 10 68.07 28.7 100.78 42.35 20.32 8.48 37.87 15.81 40.11 16.83a13.79 13.79 0 017 11.68v236.14a14.23 14.23 0 01-5.49 10.74c-6 2.88-102.85 44.65-142.24 60.33a34.49 34.49 0 01-11.71 2.54h-.42a44.93 44.93 0 01-14-3.2c-9.7-3.8-132.33-56-140.48-59.49-1.77-1-5.62-5.77-5.62-10.91V85.47a14.1 14.1 0 015.93-11c6.31-3.5 62.33-27.32 139.9-59.5a38.33 38.33 0 0113.6-3.1m0-11.85a49.58 49.58 0 00-18.17 4C112.2 20.99 16.98 60.71 11.35 64.5A25.88 25.88 0 000 85.5v236.11c0 9.74 6.61 18.78 12.41 21.63 0 0 131 55.79 141.22 59.8a55.06 55.06 0 0018.17 4h.49a45.6 45.6 0 0016.12-3.38c39-15.5 138.86-58.53 143.3-60.81 4.18-2.14 11.9-10.14 11.9-21.27V85.47c0-11.39-7.94-19.72-13.95-22.46S226.96 20.26 188.57 3.69A43.62 43.62 0 00172.15.01h-.85z"/><path d="M251.43 287.52c-1.94-5-71.56-169.95-72.57-173a12.07 12.07 0 012.12-11.91 12.42 12.42 0 018-4.53 11.75 11.75 0 019.3 2.36 12.37 12.37 0 014.9 8.24c.62 3.88 3.74 5.45 7.38 5a5.86 5.86 0 003.86-2.18 5.68 5.68 0 001.08-4.42 23.78 23.78 0 00-9.42-16.38 24.27 24.27 0 00-18.62-4.95 26.16 26.16 0 00-15.38 8.22 25.83 25.83 0 00-3.57-3.29 24.27 24.27 0 00-18.62-4.95 26.15 26.15 0 00-15.39 8.23 25.83 25.83 0 00-3.56-3.28 24.27 24.27 0 00-18.62-4.95 25.94 25.94 0 00-16.59 9.68c-4 5.44-6.77 14-4 22.44 1.63 5 71.78 171.18 72.9 174.24a11.81 11.81 0 01-1.87 12.22 12.26 12.26 0 01-8.25 4.68 12 12 0 01-9.15-2.43 12.32 12.32 0 01-5-8.33 6.59 6.59 0 00-2.47-3.78 6.68 6.68 0 00-4.66-.88 6 6 0 00-3.92 2.19 5.32 5.32 0 00-1.13 4.05 24.23 24.23 0 009.67 16.65 23.7 23.7 0 0018.09 4.9 24.46 24.46 0 0015.78-8.3 26.82 26.82 0 003.7 3.4 23.7 23.7 0 0018.09 4.9 24.46 24.46 0 0015.77-8.29 26.81 26.81 0 003.71 3.42 23.7 23.7 0 0018.09 4.9 24.45 24.45 0 0016.67-9.51 25.17 25.17 0 003.68-24.36zm-51.17 16.78a12.26 12.26 0 01-8.25 4.68 12 12 0 01-9.15-2.43 12.32 12.32 0 01-5-8.33 24.32 24.32 0 00-1.61-10.7c-1.94-5-71.56-169.95-72.57-173a12.07 12.07 0 012.15-11.91 12.42 12.42 0 018-4.53 11.75 11.75 0 019.3 2.36 12.37 12.37 0 014.9 8.24 7.54 7.54 0 00.17.79 22.75 22.75 0 001.07 8.37c1.63 5 71.78 171.18 72.9 174.24a11.81 11.81 0 01-1.91 12.21zm37.57 0a12.26 12.26 0 01-8.25 4.68 12 12 0 01-9.15-2.43 12.32 12.32 0 01-5-8.33 24.31 24.31 0 00-1.6-10.72c-1.94-5-71.56-169.95-72.57-173a12.07 12.07 0 012.14-11.89 12.42 12.42 0 018-4.53 11.75 11.75 0 019.3 2.36 12.37 12.37 0 014.9 8.24 7.53 7.53 0 00.18.8 22.75 22.75 0 001.07 8.39c1.63 5 71.78 171.18 72.9 174.24a11.81 11.81 0 01-1.92 12.21z"/></svg>